<?xml version="1.0" standalone="no"?>
<!DOCTYPE svg PUBLIC "-//W3C//DTD SVG 20010904//EN"
 "http://www.w3.org/TR/2001/REC-SVG-20010904/DTD/svg10.dtd">
<svg version="1.0" xmlns="http://www.w3.org/2000/svg"
 width="1300.000000pt" height="1300.000000pt" viewBox="0 0 1300.000000 1300.000000"
 preserveAspectRatio="xMidYMid meet">
<metadata>
Created by potrace 1.16, written by Peter Selinger 2001-2019
</metadata>
<g transform="translate(0.000000,1300.000000) scale(0.100000,-0.100000)"
fill="#000000" stroke="none">
<path d="M2649 8899 c-45 -20 -46 -21 -48 -70 l-1 -50 157 3 158 3 3 68 3 67
-113 0 c-91 -1 -122 -5 -159 -21z"/>
<path d="M3250 8873 c0 -99 -8 -94 164 -91 l151 3 5 68 5 67 -162 0 -163 0 0
-47z"/>
<path d="M3900 8896 c0 -13 3 -44 6 -70 l7 -47 151 3 151 3 3 68 3 67 -161 0
-160 0 0 -24z"/>
<path d="M4552 8853 l3 -68 152 -3 152 -3 5 33 c3 18 7 50 10 71 l5 37 -165 0
-165 0 3 -67z"/>
<path d="M5200 8868 c1 -53 16 -88 39 -88 7 0 9 5 6 10 -3 6 -1 10 4 10 6 0
11 -4 11 -10 0 -6 50 -10 130 -10 l130 0 0 70 0 70 -160 0 -160 0 0 -52z"/>
<path d="M5852 8853 l3 -68 158 -3 157 -3 0 70 0 71 -160 0 -161 0 3 -67z"/>
<path d="M6504 8853 c3 -38 6 -69 6 -71 0 -1 69 -1 153 0 l152 3 3 68 3 67
-162 0 -161 0 6 -67z"/>
<path d="M7154 8853 c5 -85 4 -82 21 -59 13 18 15 18 15 3 0 -16 13 -17 138
-15 l137 3 3 68 3 67 -161 0 -161 0 5 -67z"/>
<path d="M7802 8853 l3 -68 155 0 155 0 3 68 3 67 -161 0 -161 0 3 -67z"/>
<path d="M8450 8888 c0 -18 3 -49 6 -68 l6 -36 151 1 152 0 5 68 5 67 -162 0
-163 0 0 -32z"/>
<path d="M9100 8896 c0 -13 3 -44 6 -70 l7 -47 151 3 151 3 3 68 3 67 -161 0
-160 0 0 -24z"/>
<path d="M9752 8853 l3 -68 152 -3 152 -3 5 33 c3 18 7 50 10 71 l5 37 -165 0
-165 0 3 -67z"/>
<path d="M2512 8764 c-15 -11 -17 -34 -20 -164 l-3 -151 53 3 53 3 3 158 c2
86 -1 157 -5 158 -46 6 -66 4 -81 -7z"/>
<path d="M10834 8741 c3 -20 6 -93 6 -163 l0 -128 103 1 c82 0 97 2 77 11
l-25 11 25 7 c21 7 18 8 -20 11 l-45 2 45 7 c25 4 36 8 25 8 -18 2 -20 7 -17
36 2 19 -4 55 -13 80 -9 24 -14 49 -11 54 3 5 -1 15 -9 22 -9 7 -14 24 -13 38
3 22 -1 25 -37 28 -22 2 -53 5 -69 8 -27 3 -28 2 -22 -33z"/>
<path d="M10320 8723 c0 -5 4 -13 10 -19 14 -14 24 -96 16 -138 -4 -23 -22
-50 -49 -77 -39 -38 -40 -41 -17 -39 14 1 46 2 73 1 l47 -1 0 -102 c0 -97 1
-100 18 -85 10 10 22 17 25 17 4 0 16 8 27 17 16 14 20 31 22 83 l2 65 6 -70
7 -70 -1 70 -1 70 -52 3 -53 3 0 88 c0 75 -3 91 -20 106 -11 10 -22 27 -26 38
-7 23 -34 54 -34 40z"/>
<path d="M2611 8442 c-9 -3 -12 -39 -10 -131 1 -155 5 -180 27 -176 10 2 24 4
32 5 10 1 9 4 -5 10 -18 8 -18 9 -2 9 25 1 11 21 -16 22 l-22 0 23 9 c21 9 22
14 22 129 0 105 2 120 18 124 9 3 1 5 -19 4 -19 0 -41 -3 -48 -5z"/>
<path d="M10050 8283 c-14 -9 -27 -19 -30 -23 -3 -3 -35 -29 -71 -57 -103 -81
-103 -80 14 -75 56 2 103 4 103 5 2 2 10 167 9 167 0 0 -12 -8 -25 -17z"/>
<path d="M2490 7960 l0 -160 55 0 55 0 -2 -162 -3 -163 -50 0 -50 0 -3 -163
-3 -163 53 3 53 3 3 163 2 162 30 0 30 0 0 160 0 160 -30 0 -30 0 0 160 0 160
-55 0 -55 0 0 -160z"/>
<path d="M10840 7960 l0 -160 85 0 85 0 0 160 0 160 -85 0 -85 0 0 -160z"/>
<path d="M9710 8009 c-19 -17 -34 -36 -32 -41 1 -5 -2 -7 -7 -3 -6 3 -55 -31
-109 -77 l-99 -83 143 -3 144 -3 0 -24 c0 -36 14 -38 45 -5 l29 30 -37 0 -37
0 -1 88 c-1 48 0 102 1 120 1 17 0 32 -2 32 -2 0 -19 -14 -38 -31z"/>
<path d="M9290 7669 c-74 -61 -146 -118 -159 -128 -19 -15 -22 -21 -13 -38 10
-18 22 -20 150 -22 165 -2 150 -17 153 161 0 65 5 115 10 112 5 -3 6 2 3 10
-3 9 -7 16 -8 15 0 0 -62 -50 -136 -110z"/>
<path d="M9091 7487 c-7 -7 -16 -13 -21 -13 -6 -1 -14 -2 -19 -3 -5 0 -35 -22
-66 -47 -44 -36 -54 -49 -43 -56 10 -8 9 -9 -4 -4 -11 3 -43 -16 -91 -54 -79
-64 -77 -59 -68 -152 1 -5 60 -8 131 -8 125 0 131 1 139 22 8 21 8 21 14 -3 5
-19 9 -21 19 -11 9 9 14 59 17 167 2 88 7 152 12 149 5 -3 9 -1 9 5 0 16 -16
21 -29 8z"/>
<path d="M10840 7314 c0 -142 2 -164 16 -164 22 0 41 22 38 43 -2 14 1 16 10
7 10 -7 17 -6 26 5 12 14 7 19 -13 16 -5 -1 -6 3 -2 9 5 8 11 8 20 0 10 -9 15
-6 21 12 5 13 9 34 9 47 0 17 7 25 21 26 11 1 21 -4 21 -11 0 -7 -7 -10 -15
-6 -11 4 -14 1 -10 -10 4 -9 1 -22 -5 -29 -7 -8 0 -4 14 9 23 20 25 28 21 75
-2 29 -10 57 -18 63 -12 10 -11 13 8 18 18 5 20 8 9 15 -11 7 -11 9 0 13 8 3
-13 8 -46 12 -33 4 -75 8 -92 11 l-33 4 0 -165z"/>
<path d="M2619 7143 c-15 -4 -17 -23 -15 -156 l1 -152 25 0 25 0 0 125 c0 116
1 125 20 132 17 5 16 6 -7 7 -14 1 -28 -5 -31 -11 -2 -7 -8 -10 -12 -5 -12 10
-1 18 37 27 l33 8 -40 2 -40 2 40 13 c38 12 38 13 10 13 -16 0 -37 -2 -46 -5z"/>
<path d="M8614 7122 c-18 -15 -64 -53 -104 -86 -39 -32 -68 -61 -63 -65 4 -3
8 -35 8 -71 l0 -65 100 1 c99 1 101 1 133 33 17 18 33 38 33 44 1 7 5 -4 9
-23 7 -34 7 -34 9 13 1 46 15 64 24 30 3 -10 5 35 6 100 l1 117 -62 0 c-54 0
-67 -4 -94 -28z"/>
<path d="M8232 6809 c-15 -10 -45 -33 -67 -52 l-40 -35 3 -108 c2 -60 5 -110
7 -112 1 -1 40 1 86 5 46 4 76 9 67 11 -10 2 -18 7 -18 12 0 13 54 52 93 66 9
3 17 10 17 15 0 5 6 9 13 9 7 0 19 9 27 20 14 19 15 19 22 3 4 -10 6 25 5 76
-2 52 -8 96 -13 97 -5 2 -46 4 -92 7 -66 3 -88 0 -110 -14z"/>
<path d="M10840 6663 l0 -163 64 0 c72 0 133 10 118 19 -13 8 -20 281 -8 281
5 0 7 3 3 6 -3 3 -44 9 -91 13 l-86 7 0 -163z"/>
<path d="M2490 6637 l0 -137 49 0 c58 0 61 5 61 99 l0 67 -55 54 -55 54 0
-137z"/>
<path d="M2606 6454 c-7 -55 -8 -274 -1 -274 19 0 43 36 40 61 -2 16 0 31 6
34 5 4 9 42 9 85 0 53 4 80 13 84 6 3 0 4 -15 2 -16 -2 -28 0 -28 5 0 4 17 10
38 12 37 4 36 4 -7 5 -24 1 -41 5 -37 9 4 4 24 7 44 6 36 -2 36 -1 7 7 -58 15
-62 13 -69 -36z"/>
<path d="M7900 6460 c24 -22 50 -38 57 -36 7 3 10 0 8 -7 -5 -15 72 -70 86
-61 5 3 17 0 26 -8 14 -11 16 -11 8 2 -13 21 -16 50 -6 50 5 0 13 -12 18 -27
8 -24 11 -18 16 41 4 38 4 73 1 77 -3 5 -62 9 -132 9 l-127 -1 45 -39z"/>
<path d="M7481 6165 c-4 -5 -6 -21 -5 -35 1 -14 3 -78 5 -143 2 -75 7 -116 14
-114 5 2 12 12 13 23 5 24 41 64 59 64 7 0 13 5 13 10 0 6 6 10 13 10 7 0 48
35 90 77 75 76 77 76 97 58 11 -10 20 -14 20 -9 0 8 -48 50 -77 68 -20 11 -15
-1 8 -22 17 -17 18 -20 4 -26 -17 -6 -55 13 -55 28 0 5 9 1 20 -9 11 -10 22
-16 25 -13 3 3 -3 12 -12 20 -21 19 -220 30 -232 13z"/>
<path d="M2490 6113 l0 -57 51 49 c29 28 48 44 44 37 -4 -8 -27 -32 -51 -54
l-44 -41 0 -99 0 -99 55 3 55 3 0 142 c0 78 -3 148 -6 157 -4 12 -20 16 -55
16 l-49 0 0 -57z"/>
<path d="M10840 6010 l0 -160 73 0 c39 0 77 4 84 8 8 5 11 47 10 140 -1 80 2
134 8 136 6 3 4 5 -2 5 -7 1 -13 8 -13 16 0 12 -16 15 -80 15 l-80 0 0 -160z"/>
<path d="M5159 6080 c-16 -16 -31 -28 -32 -27 -2 1 -23 -15 -48 -35 -24 -21
-109 -90 -189 -154 -80 -64 -147 -119 -150 -123 -3 -4 -18 -14 -33 -24 -15
-10 -25 -23 -21 -29 4 -6 3 -8 -3 -5 -5 3 -39 -18 -75 -48 -55 -46 -65 -58
-61 -80 l5 -25 135 0 134 0 15 33 c13 28 14 29 9 5 -3 -15 -1 -29 4 -33 14 -8
21 43 23 185 l3 125 163 3 162 2 0 130 c0 72 -3 130 -6 130 -3 0 -19 -13 -35
-30z"/>
<path d="M2623 5843 c-23 -4 -23 -7 -23 -159 l0 -155 23 6 c12 4 25 10 29 14
4 3 8 68 10 144 3 116 1 137 -12 139 -8 0 5 4 30 8 l45 7 -40 0 c-22 0 -50 -2
-62 -4z"/>
<path d="M7158 5841 c-5 -21 -2 -227 3 -213 4 10 9 -6 11 -38 4 -48 5 -44 8
30 l3 85 7 -60 c5 -41 7 -49 8 -24 2 41 60 107 84 94 7 -4 -5 8 -27 26 -22 19
-42 33 -46 32 -4 -1 -6 5 -5 15 0 10 -5 16 -14 14 -8 -2 -12 0 -8 4 4 4 0 13
-10 20 -13 10 -14 12 -2 11 8 -2 20 -6 26 -9 6 -4 69 -4 140 0 108 5 121 7 79
14 -61 8 -254 8 -257 -1z"/>
<path d="M6784 5642 c-64 -47 -200 -90 -261 -83 -17 2 -23 -3 -23 -18 0 -19
-6 -21 -75 -21 -41 0 -75 -3 -75 -8 0 -11 42 -46 59 -48 7 -2 23 -12 35 -23
12 -12 28 -21 34 -21 7 0 13 -6 14 -12 1 -7 4 16 7 52 l6 65 157 3 156 2 4 68
c2 37 3 68 2 70 0 1 -19 -11 -40 -26z"/>
<path d="M4399 5468 c-161 -129 -175 -143 -176 -182 0 -20 3 -34 6 -31 4 2 5
-9 3 -26 l-4 -29 125 0 c86 0 128 4 133 12 4 6 11 39 15 72 l8 61 -3 -67 c-3
-61 -2 -68 15 -68 11 0 19 7 19 18 0 15 -2 15 -11 2 -8 -12 -9 -10 -5 10 3 14
6 32 7 40 0 8 5 4 9 -10 5 -15 8 28 9 113 1 124 -1 137 -16 138 -10 1 -27 3
-39 4 -12 1 -50 -21 -95 -57z"/>
<path d="M10840 5366 l0 -166 103 2 c79 1 92 3 57 8 -43 7 -44 7 -10 9 29 2
32 4 15 11 -11 5 -15 9 -8 9 8 1 13 38 15 126 2 104 1 125 -12 129 -8 2 -3 4
12 5 15 0 29 4 32 9 2 4 -39 9 -92 11 -53 1 -100 5 -104 7 -5 3 -8 -69 -8
-160z"/>
<path d="M2490 5360 l0 -161 53 3 52 3 0 155 0 155 -52 3 -53 3 0 -161z"/>
<path d="M2623 5193 c-23 -4 -23 -7 -23 -152 l0 -148 30 -6 c16 -4 40 -2 52 3
21 8 19 9 -12 10 -19 1 -29 4 -22 7 9 3 12 40 12 133 0 93 3 130 13 133 6 3 2
6 -10 6 -12 1 -25 -3 -28 -9 -3 -5 -11 -10 -18 -10 -25 0 13 23 50 30 33 7 34
8 8 7 -16 0 -40 -2 -52 -4z"/>
<path d="M4044 5179 c-10 -12 -47 -42 -82 -67 l-63 -46 3 -91 3 -90 40 -3 c22
-2 74 0 115 4 l75 8 -50 7 -50 6 45 1 c46 2 80 26 80 55 0 15 39 17 41 2 3
-21 17 112 18 173 l1 62 -78 0 c-67 0 -82 -3 -98 -21z"/>
<path d="M2490 4715 l0 -166 53 3 52 3 3 158 c2 145 1 157 -15 157 -10 1 -35
3 -55 6 l-38 6 0 -167z"/>
<path d="M3625 4838 c-34 -27 -50 -47 -49 -62 1 -11 2 -58 3 -103 1 -92 -6
-85 94 -98 33 -4 47 -3 47 6 0 6 8 19 18 28 9 9 22 25 28 35 6 11 19 24 30 30
10 6 22 16 27 21 4 6 11 4 17 -5 8 -12 10 -8 11 15 2 27 3 25 9 -10 6 -35 8
-31 10 35 l3 75 6 -65 6 -65 8 64 c4 35 7 79 7 97 l0 34 -82 1 c-46 0 -97 2
-113 3 -24 3 -43 -6 -80 -36z"/>
<path d="M10840 4713 l0 -163 63 0 c34 0 80 4 102 8 l40 7 -55 6 -55 6 58 1
c31 1 57 6 57 11 0 4 -10 6 -22 4 l-23 -4 5 131 c3 82 1 135 -5 140 -5 4 -45
10 -87 12 l-78 3 0 -162z"/>
<path d="M2600 4403 c0 -143 4 -173 22 -173 6 0 8 7 4 15 -3 9 0 15 10 15 10
0 14 -6 10 -15 -4 -10 1 -15 15 -15 18 0 19 2 5 21 -9 13 -13 35 -10 58 3 24
2 30 -4 17 -5 -11 -8 6 -7 48 0 36 3 66 8 66 4 0 7 5 7 11 0 5 -5 7 -10 4 -7
-4 -9 2 -5 18 4 16 1 30 -10 41 -9 9 -13 16 -8 16 5 0 14 -5 19 -10 8 -8 15
-6 24 5 13 16 13 17 -40 19 l-30 1 0 -142z"/>
<path d="M3254 4538 c-5 -7 -7 -66 -4 -138 3 -69 7 -109 9 -90 l4 35 6 -35 c3
-19 3 -36 -1 -38 -10 -5 -10 -42 0 -41 4 0 16 5 27 10 19 9 18 9 -2 5 -13 -2
-23 -1 -23 4 0 4 18 10 40 14 29 5 38 10 34 21 -4 9 0 15 8 15 17 0 68 51 68
68 0 7 6 12 13 12 6 0 31 18 54 40 l42 40 4 -27 c4 -26 4 -26 6 5 1 34 16 43
25 15 2 -10 4 7 3 37 l-2 55 -151 3 c-117 3 -152 1 -160 -10z"/>
<path d="M2890 4249 l-35 -19 37 0 37 0 3 -72 c2 -51 7 -73 16 -72 6 1 48 2
92 3 64 1 80 4 80 16 0 8 4 15 9 15 5 0 23 14 39 30 35 34 49 38 54 13 3 -11
6 -5 9 13 4 25 2 31 -10 26 -9 -3 -12 -1 -7 6 5 9 -28 12 -131 12 -140 0 -168
7 -156 36 6 17 6 17 -37 -7z"/>
<path d="M10127 4215 c-2 -5 15 -25 37 -43 23 -19 51 -42 64 -53 12 -10 30
-19 40 -20 14 0 14 -2 -3 -9 -20 -9 -20 -9 0 -9 11 -1 31 7 44 16 14 9 21 11
17 4 -5 -8 4 -7 29 3 21 9 39 16 41 16 2 0 4 23 4 50 l0 50 -47 2 c-116 5
-223 2 -226 -7z"/>
<path d="M10826 4219 c-21 -73 -54 -154 -81 -199 -21 -38 -30 -62 -25 -75 12
-32 0 -45 -40 -45 -25 0 -48 -8 -67 -23 -40 -33 -153 -94 -188 -101 l-30 -6 3
-90 3 -90 137 2 c75 0 122 3 105 5 -30 4 -48 23 -22 23 5 0 7 5 4 10 -3 6 -2
10 4 10 5 0 11 -5 13 -11 2 -7 17 -8 42 -4 28 6 34 10 24 17 -10 7 -10 11 0
15 9 3 12 38 12 124 l0 119 73 0 c39 0 104 3 142 7 70 8 70 8 25 14 l-45 6 55
3 55 3 -55 7 c-50 6 -51 7 -15 8 l40 2 -3 45 c-3 28 0 45 7 45 7 0 11 30 11
84 0 58 4 86 13 89 6 3 -27 6 -75 6 -47 1 -93 4 -102 7 -9 3 -18 0 -20 -7z"/>
<path d="M2600 3735 c5 -21 6 -43 4 -49 -8 -21 39 -51 77 -51 26 1 35 -3 32
-12 -4 -9 0 -11 10 -7 9 3 22 2 29 -2 9 -6 5 -10 -12 -14 -17 -5 3 -9 57 -14
118 -11 121 -10 122 75 0 39 3 74 6 78 2 5 -62 11 -143 14 -81 4 -157 9 -169
13 -20 6 -21 4 -13 -31z"/>
<path d="M3250 3711 c0 -21 3 -58 6 -82 l6 -44 127 3 c95 2 129 7 137 18 16
20 23 17 17 -6 -3 -11 0 -20 6 -20 13 0 12 -8 17 70 2 36 6 73 8 83 4 16 -9
17 -160 17 l-164 0 0 -39z"/>
<path d="M3900 3708 c0 -24 3 -60 6 -80 l6 -37 132 -3 c125 -3 156 -1 129 9
-7 3 -13 10 -13 16 0 6 11 0 24 -12 13 -12 26 -19 29 -14 2 4 5 43 6 86 l2 77
-160 0 -161 0 0 -42z"/>
<path d="M4551 3671 l3 -80 125 -3 c69 -2 138 -2 153 0 31 4 35 14 41 105 l3
57 -163 0 -164 0 2 -79z"/>
<path d="M5200 3670 l0 -80 159 0 159 0 4 80 3 80 -162 0 -163 0 0 -80z"/>
<path d="M5853 3668 c3 -46 6 -83 6 -83 1 0 70 0 155 0 l153 0 2 55 c0 30 3
67 7 83 l6 27 -167 0 -167 0 5 -82z"/>
<path d="M6501 3698 c2 -83 11 -113 34 -112 11 1 80 2 154 2 105 2 132 5 128
15 -3 7 -2 43 2 80 l7 67 -163 0 -163 0 1 -52z"/>
<path d="M7152 3673 c3 -52 9 -78 18 -81 7 -3 10 0 6 6 -3 6 -2 13 4 17 5 3
10 -2 10 -12 0 -16 9 -18 70 -18 69 0 105 14 79 30 -8 6 -10 4 -4 -6 8 -12 6
-12 -8 0 -9 7 -14 18 -11 23 4 6 10 6 17 -1 14 -14 30 -14 22 -1 -4 6 -3 10 2
9 4 -1 16 1 26 6 15 6 15 10 5 24 -11 14 -11 14 4 3 10 -8 18 -9 22 -3 7 10
-27 34 -36 26 -3 -3 -5 2 -5 9 0 12 7 10 29 -6 28 -19 29 -19 26 -2 -2 10 3
19 10 20 6 1 16 2 21 3 5 0 11 8 15 16 5 13 -17 15 -160 15 l-166 0 4 -77z"/>
<path d="M7800 3703 c0 -27 3 -64 6 -83 l6 -35 146 2 c81 1 150 2 153 3 4 0 7
32 8 71 0 39 3 75 7 80 3 5 -64 9 -160 9 l-166 0 0 -47z"/>
<path d="M8450 3711 c0 -21 3 -58 6 -82 l6 -44 149 0 c82 0 149 0 150 0 0 0 4
37 7 83 l7 82 -162 0 -163 0 0 -39z"/>
<path d="M9100 3708 c0 -24 3 -60 6 -80 l6 -37 133 -3 c120 -3 132 -1 124 13
-4 9 -6 19 -3 21 3 3 -25 33 -62 67 l-67 61 -68 0 -69 0 0 -42z"/>
<path d="M9751 3671 l3 -80 125 -3 c69 -2 138 -2 153 0 31 4 35 14 41 105 l3
57 -163 0 -164 0 2 -79z"/>
</g>
</svg>
